<svg xmlns="http://www.w3.org/2000/svg" id="artificial-configuration" viewBox="0 0 64.35 56.61"><g id="ICONS"><g><line x1="4.27" x2="4.27" y1="5.61" y2="33.73" fill="none" stroke="#000" stroke-linecap="round" stroke-linejoin="round"/><g><rect width="48.68" height="35.12" x="7.84" y="20.99" fill="#fff" rx="5.28" ry="5.28"/><rect width="48.68" height="35.12" x="7.84" y="20.99" fill="none" stroke="#000" stroke-linecap="round" stroke-linejoin="round" rx="5.28" ry="5.28"/></g><g><rect width="34.6" height="12.91" x="14.88" y="27.28" fill="#fff" rx="2.89" ry="2.89"/><rect width="34.6" height="12.91" x="14.88" y="27.28" fill="none" stroke="#000" stroke-linecap="round" stroke-linejoin="round" rx="2.89" ry="2.89"/></g><path fill="#fff" stroke="#000" stroke-linecap="round" stroke-linejoin="round" d="m26.69,51.51c0-3.03,2.46-5.49,5.49-5.49s5.49,2.46,5.49,5.49"/><g><path fill="#fff" d="m28.57,33.73c0,2.09-1.7,3.79-3.79,3.79s-3.79-1.7-3.79-3.79,1.7-3.79,3.79-3.79,3.79,1.7,3.79,3.79Z"/><path fill="none" stroke="#000" stroke-linecap="round" stroke-linejoin="round" d="m28.57,33.73c0,2.09-1.7,3.79-3.79,3.79s-3.79-1.7-3.79-3.79,1.7-3.79,3.79-3.79,3.79,1.7,3.79,3.79Z"/></g><g><path fill="#fff" d="m44.66,33.73c0,2.09-1.7,3.79-3.79,3.79s-3.79-1.7-3.79-3.79,1.7-3.79,3.79-3.79,3.79,1.7,3.79,3.79Z"/><path fill="none" stroke="#000" stroke-linecap="round" stroke-linejoin="round" d="m44.66,33.73c0,2.09-1.7,3.79-3.79,3.79s-3.79-1.7-3.79-3.79,1.7-3.79,3.79-3.79,3.79,1.7,3.79,3.79Z"/></g><g><path fill="#fff" d="m7.84,29.6v15.84H3.21c-1.5,0-2.71-1.21-2.71-2.71v-10.42c0-1.5,1.21-2.71,2.71-2.71h4.63Z"/><path fill="none" stroke="#000" stroke-linecap="round" stroke-linejoin="round" d="m7.84,29.6v15.84H3.21c-1.5,0-2.71-1.21-2.71-2.71v-10.42c0-1.5,1.21-2.71,2.71-2.71h4.63Z"/></g><g><path fill="#fff" d="m56.52,29.6v15.84s4.63,0,4.63,0c1.5,0,2.71-1.21,2.71-2.71v-10.42c0-1.5-1.21-2.71-2.71-2.71h-4.63Z"/><path fill="none" stroke="#000" stroke-linecap="round" stroke-linejoin="round" d="m56.52,29.6v15.84s4.63,0,4.63,0c1.5,0,2.71-1.21,2.71-2.71v-10.42c0-1.5-1.21-2.71-2.71-2.71h-4.63Z"/></g><g><path fill="#fff" d="m7.09,3.32c0,1.56-1.26,2.83-2.82,2.83s-2.83-1.27-2.83-2.83S2.71.5,4.27.5s2.82,1.26,2.82,2.82Z"/><path fill="none" stroke="#000" stroke-linecap="round" stroke-linejoin="round" d="m7.09,3.32c0,1.56-1.26,2.83-2.82,2.83s-2.83-1.27-2.83-2.83S2.71.5,4.27.5s2.82,1.26,2.82,2.82Z"/></g><g><g><path fill="#fff" d="m35.79,16.79c.15.45.33.9.54,1.32.11.21.1.45-.02.65l-1.07,1.74c-.16.26-.12.61.1.83l1.88,1.88c.22.22.56.26.83.1l1.72-1.06c.2-.12.45-.13.66-.02.42.22.86.4,1.31.54.23.07.4.25.46.48l.47,1.97c.07.3.34.52.65.52h2.65c.31,0,.58-.21.65-.52l.47-1.97c.05-.23.23-.41.46-.48.46-.15.89-.33,1.31-.54.21-.11.46-.11.66.02l1.73,1.06c.26.16.61.12.83-.1l1.87-1.87c.22-.22.26-.56.1-.83l-1.07-1.74c-.12-.2-.13-.44-.02-.65.21-.42.39-.86.54-1.32.07-.22.25-.39.48-.45l1.99-.47c.3-.07.52-.34.52-.65v-2.65c0-.31-.21-.58-.52-.65l-1.98-.47c-.23-.05-.41-.23-.48-.46-.14-.45-.33-.89-.54-1.31-.11-.21-.1-.46.02-.66l1.07-1.73c.16-.26.12-.61-.1-.83l-1.87-1.87c-.22-.22-.56-.26-.83-.1l-1.73,1.06c-.2.12-.45.13-.66.02-.42-.22-.86-.4-1.31-.54-.23-.07-.4-.25-.46-.48l-.47-1.97c-.07-.3-.34-.52-.65-.52h-2.65c-.31,0-.58.21-.65.52l-.47,1.97c-.05.23-.23.41-.46.48-.46.15-.89.33-1.31.54-.21.11-.46.11-.66-.02l-1.72-1.06c-.26-.16-.61-.12-.83.1l-1.88,1.88c-.22.22-.26.56-.1.83l1.06,1.73c.12.2.13.45.02.66-.21.42-.4.86-.54,1.31-.07.23-.25.4-.48.46l-1.97.46c-.3.07-.52.34-.52.65v2.65c0,.31.21.58.52.65l1.98.47c.23.05.4.23.48.45Z"/><path fill="none" stroke="#000" stroke-linecap="round" stroke-linejoin="round" d="m35.79,16.79c.15.45.33.9.54,1.32.11.21.1.45-.02.65l-1.07,1.74c-.16.26-.12.61.1.83l1.88,1.88c.22.22.56.26.83.1l1.72-1.06c.2-.12.45-.13.66-.02.42.22.86.4,1.31.54.23.07.4.25.46.48l.47,1.97c.07.3.34.52.65.52h2.65c.31,0,.58-.21.65-.52l.47-1.97c.05-.23.23-.41.46-.48.46-.15.89-.33,1.31-.54.21-.11.46-.11.66.02l1.73,1.06c.26.16.61.12.83-.1l1.87-1.87c.22-.22.26-.56.1-.83l-1.07-1.74c-.12-.2-.13-.44-.02-.65.21-.42.39-.86.54-1.32.07-.22.25-.39.48-.45l1.99-.47c.3-.07.52-.34.52-.65v-2.65c0-.31-.21-.58-.52-.65l-1.98-.47c-.23-.05-.41-.23-.48-.46-.14-.45-.33-.89-.54-1.31-.11-.21-.1-.46.02-.66l1.07-1.73c.16-.26.12-.61-.1-.83l-1.87-1.87c-.22-.22-.56-.26-.83-.1l-1.73,1.06c-.2.12-.45.13-.66.02-.42-.22-.86-.4-1.31-.54-.23-.07-.4-.25-.46-.48l-.47-1.97c-.07-.3-.34-.52-.65-.52h-2.65c-.31,0-.58.21-.65.52l-.47,1.97c-.05.23-.23.41-.46.48-.46.15-.89.33-1.31.54-.21.11-.46.11-.66-.02l-1.72-1.06c-.26-.16-.61-.12-.83.1l-1.88,1.88c-.22.22-.26.56-.1.83l1.06,1.73c.12.2.13.45.02.66-.21.42-.4.86-.54,1.31-.07.23-.25.4-.48.46l-1.97.46c-.3.07-.52.34-.52.65v2.65c0,.31.21.58.52.65l1.98.47c.23.05.4.23.48.45Z"/></g><g><circle cx="44.66" cy="13.89" r="6.3" fill="#fff" transform="rotate(-45 44.663 13.89)"/><circle cx="44.66" cy="13.89" r="6.3" fill="none" stroke="#000" stroke-linecap="round" stroke-linejoin="round" transform="rotate(-45 44.663 13.89)"/></g></g></g></g></svg>